<svg width="24" height="24" viewBox="0 0 24 24" data-name="Layer 1" xmlns="http://www.w3.org/2000/svg"><title/><path stroke="currentColor" stroke-width="0.4" paint-order="stroke" d="M22.07 7.922a.266.266 0 0 0-.28-.178.28.28 0 0 0-.252.215c-.257 1.116-1.285 1.814-1.85 2.12.076-4.779-2.402-6.926-2.527-7.027a.28.28 0 0 0-.455.17c-.328 2.11-1.36 3.355-1.883 3.866C13.752 3.394 11.01.93 10.97.897a.281.281 0 0 0-.464.222c0 .037.073 3.743-6.128 8.015-1.836 1.266-2.929 2.864-3.249 4.753-.562 3.329 1.433 6.443 1.85 7.049a9.4 9.4 0 0 0-.217 1.969.28.28 0 0 0 .281.27h.008a.28.28 0 0 0 .27-.287c0-.018-.01-.707.199-1.752q.268-.027.533-.06c.334.066.675.107 1.014.149l.009.006c.05.02 3.219 1.33 7.077 1.33 2.292 0 4.828-.463 7.093-1.933 6.127-3.975 2.86-12.619 2.825-12.705m-4.914-4.071c.816.951 2.682 3.773 1.696 8.837-.47 2.416-1.858 4.456-4.013 5.906-2.43 1.633-5.74 2.4-8.962 2.157 3.575-.849 6.368-2.816 7.964-5.611l.009-.008c.15-.163 3.69-4.024 3.838-7.094a.28.28 0 0 0-.266-.294.29.29 0 0 0-.294.266c-.083 1.731-1.397 3.81-2.433 5.2.064-.188.132-.375.185-.57a9.84 9.84 0 0 0 .098-4.933c.413-.349 1.67-1.558 2.177-3.856m-5.613 3.11c-.01-.153-.13-.26-.301-.256a.28.28 0 0 0-.257.302c.125 1.556-.101 3.4-4.239 7.281a12.6 12.6 0 0 0-3.584 5.89c-.642-1.071-1.922-3.61-1.481-6.2.293-1.735 1.31-3.207 3.014-4.384 5.042-3.475 6.098-6.587 6.315-7.875 1.244 1.293 4.793 5.552 3.336 10.77-1.81 6.485-8.22 7.805-10.697 8.073a12.1 12.1 0 0 1 3.48-5.865c3.897-3.656 4.577-5.668 4.414-7.734m7.399 13.192c-4.02 2.608-8.95 1.899-11.647 1.197 2.867-.047 5.697-.844 7.86-2.297.173-.115.33-.242.496-.365.008-.004.014 0 .02-.005.192-.11 4.72-2.719 5.661-6.44a.281.281 0 0 0-.542-.138c-.419 1.654-1.642 3.1-2.82 4.169a9.5 9.5 0 0 0 1.434-3.483 16 16 0 0 0 .263-2.075c.396-.18 1.528-.772 2.121-1.863.615 2.111 1.885 8.23-2.846 11.299"/></svg>