<svg xmlns="http://www.w3.org/2000/svg" width="24" height="24" viewBox="0 0 24 24" xml:space="preserve"><defs><linearGradient id="a" x1="0%" y1="0%" x2="100%" y2="100%"><stop offset="0%" style="stop-color:#FF7049;stop-opacity:1"/><stop offset="100%" style="stop-color:#E85D27;stop-opacity:1"/></linearGradient></defs><path fill="url(#a)" d="m23.7 8.1-1.35-2.77a1.5 1.5 0 0 0-1.3-.83h-8.91l-.156-.475A1.5 1.5 0 0 0 10.56 3H1.5A1.5 1.5 0 0 0 .026 4.794l3 15A1.5 1.5 0 0 0 4.5 21h15a1.5 1.5 0 0 0 1.444-1.087l3-10.5A1.5 1.5 0 0 0 23.7 8.1M21.05 6l.75 1.5h-8.55l-.5-1.5zM19.5 19.5h-15l-3-15h9L12 9h10.5z"/></svg>