<svg width="24" height="24" viewBox="0 0 24 24" class="icon" xmlns="http://www.w3.org/2000/svg">
    <path d="m21.073 20.381-1.242-7.163h.419a.61.61 0 0 0 .609-.609v-4.5a.61.61 0 0 0-.609-.609h-5.766V3.234a.61.61 0 0 0-.609-.609h-3.75a.61.61 0 0 0-.609.609V7.5H3.75a.61.61 0 0 0-.609.609v4.5c0 .338.272.609.609.609h.42l-1.242 7.163a.608.608 0 0 0 .6.712h16.945a.607.607 0 0 0 .6-.712M4.781 9.141h6.375V4.266h1.688v4.875h6.375v2.438H4.781zM15.75 19.454v-3.657a.19.19 0 0 0-.188-.188h-1.125a.19.19 0 0 0-.188.188v3.656H9.75v-3.656a.19.19 0 0 0-.188-.188H8.437a.19.19 0 0 0-.188.188v3.656H4.753l1.057-6.094h12.378l1.057 6.094z"/>
</svg>