<svg width="24" height="24" viewBox="0 0 30.72 30.72" xmlns="http://www.w3.org/2000/svg"><path d="M15.36 0C6.877 0 0 6.877 0 15.36s6.877 15.36 15.36 15.36 15.36-6.876 15.36-15.36S23.844 0 15.36 0m0 28.83c-7.411 0-13.44-6.06-13.44-13.47S7.949 1.92 15.36 1.92 28.8 7.949 28.8 15.36s-6.029 13.47-13.44 13.47m5.43-18.9a.96.96 0 0 0-1.357 0l-4.073 4.073-4.073-4.073a.96.96 0 0 0-1.358 1.357l4.073 4.073-4.073 4.073a.959.959 0 1 0 1.358 1.357l4.073-4.073 4.073 4.073a.959.959 0 1 0 1.357-1.357l-4.073-4.073 4.073-4.073a.96.96 0 0 0 0-1.357" fill="#fff"/></svg>