<svg width="24" height="24" viewBox="0 0 24 24" fill="none" xmlns="http://www.w3.org/2000/svg"><path d="m10.926 7.405.211-.006h8.625a3.74 3.74 0 0 1 3.732 3.525l.006.212v8.625a3.74 3.74 0 0 1-3.526 3.732l-.212.006h-8.625a3.74 3.74 0 0 1-3.731-3.526l-.006-.21v-8.626a3.74 3.74 0 0 1 3.526-3.731m8.837 1.719h-8.626a2.01 2.01 0 0 0-2.005 1.847l-.007.165v8.625a2.01 2.01 0 0 0 1.848 2.006l.164.007h8.626a2.01 2.01 0 0 0 2.005-1.848l.007-.165v-8.625a2.01 2.01 0 0 0-2.012-2.012M15.45 10.85a.86.86 0 0 1 .862.862v2.873h2.875a.862.862 0 0 1 0 1.725h-2.875v2.877a.862.862 0 0 1-1.725 0V16.31h-2.874a.862.862 0 1 1 0-1.725h2.875v-2.873a.86.86 0 0 1 .862-.862m.67-7.782.06.203.796 2.977H15.19l-.676-2.53a2.01 2.01 0 0 0-2.466-1.424l-8.33 2.233a2.01 2.01 0 0 0-1.46 2.295l.036.17 2.233 8.33a2.01 2.01 0 0 0 1.723 1.48v1.732a3.74 3.74 0 0 1-3.33-2.562l-.06-.202L.63 7.438A3.74 3.74 0 0 1 3.067 2.92l.204-.06L11.603.629a3.74 3.74 0 0 1 4.517 2.438" fill="currentColor"/></svg>