<svg width="24" height="24" viewBox="0 0 0.45 0.45" fill="none" xmlns="http://www.w3.org/2000/svg"><path d="M.405.105H.42V.099L.416.095zm-.09-.09L.326.004.321 0H.315zm-.12.18V.18H.18v.015zm0 .06H.18V.27h.015zm.06 0H.27V.24H.255zm0 .06V.33H.27V.315zm.06-.03H.3v.006l.004.004zm.03.03L.334.326l.011.011.011-.011zm.03-.03.011.011L.39.292V.285zm-.3-.09V.18H.06v.015zm0 .12H.06V.33h.015zM.06.15V.045H.03V.15zM.39.105V.15h.03V.105zM.075.03h.24V0h-.24zM.304.026l.09.09.021-.021-.09-.09zM.06.045A.015.015 0 0 1 .075.03V0A.045.045 0 0 0 .03.045zM.03.36v.045h.03V.36zm.045.09h.3V.42h-.3zM.42.405V.36H.39v.045zM.375.45A.045.045 0 0 0 .42.405H.39A.015.015 0 0 1 .375.42zM.03.405A.045.045 0 0 0 .075.45V.42A.015.015 0 0 1 .06.405zM.27.18H.195v.03H.27zM.18.195v.06h.03v-.06zM.195.27h.06V.24h-.06zM.24.255v.06h.03v-.06zM.255.3H.18v.03h.075zM.3.18v.105h.03V.18zm.004.116.03.03.021-.021-.03-.03zm.051.03.03-.03L.364.275l-.03.03zM.39.285V.18H.36v.105zM.15.18H.075v.03H.15zM.06.195v.12h.03v-.12zM.075.33H.15V.3H.075z" fill="#000"/></svg>