<svg width="24" height="24" viewBox="0 0 24 24" xmlns="http://www.w3.org/2000/svg"><defs><linearGradient id="a" x1="0%" y1="0%" x2="100%" y2="100%"><stop offset="0%" style="stop-color:#073551;stop-opacity:1"/><stop offset="50%" style="stop-color:#35c1f1;stop-opacity:1"/><stop offset="100%" style="stop-color:#21b573;stop-opacity:1"/></linearGradient></defs><path fill="url(#a)" d="M12 0C5.373 0 0 5.373 0 12s5.373 12 12 12 12-5.373 12-12S18.627 0 12 0m1.04 16a8 8 0 0 0 3.04-.64v2.12a8 8 0 0 1-3.36.6 5.2 5.2 0 0 1-4-1.6A6.8 6.8 0 0 1 7.04 12c0-1.32.272-2.507.68-3.28a4.8 4.8 0 0 1 1.96-2.16 5.6 5.6 0 0 1 3-.84c1.173 0 2.133.28 3.52.84l-1.36 1.76-1.36-.6a4 4 0 0 0-1.76-.56 2.8 2.8 0 0 0-2.24 1.08A5.2 5.2 0 0 0 8.64 12c0 2.667.827 4 3 4"/></svg>