<svg width="24" height="24" viewBox="0 0 0.96 0.96" data-name="Layer 1" xmlns="http://www.w3.org/2000/svg"><path d="M.816.303H.734V.21A.07.07 0 0 0 .662.138h-.53A.07.07 0 0 0 .06.21v.375a.07.07 0 0 0 .072.072h.093v.082a.084.084 0 0 0 .084.084h.507A.084.084 0 0 0 .9.739V.387A.084.084 0 0 0 .816.303M.132.6A.016.016 0 0 1 .116.584V.21A.016.016 0 0 1 .132.194h.53A.016.016 0 0 1 .678.21v.093H.31a.084.084 0 0 0-.084.084V.6Zm.712.137a.03.03 0 0 1-.028.028H.31A.03.03 0 0 1 .282.737v-.35A.03.03 0 0 1 .31.359h.506a.03.03 0 0 1 .028.028Z"/><path d="M.739.469H.386a.028.028 0 0 0 0 .056h.353a.028.028 0 0 0 0-.056m0 .131H.386a.028.028 0 1 0 0 .056h.353a.028.028 0 0 0 0-.056"/></svg>