<svg xmlns="http://www.w3.org/2000/svg" viewBox="0 0 24 24" xml:space="preserve" width="24" height="24"><path d="M12.409 16.781c.211.098.46.069.637-.078l9.463-7.837a.6.6 0 0 0 .216-.46.58.58 0 0 0-.22-.46L13.047.139a.59.59 0 0 0-.637-.078.6.6 0 0 0-.343.544v4.1c-10.849.392-10.805 8.62-10.785 12.607v.475a.593.593 0 0 0 .598.598.61.61 0 0 0 .524-.304c3.203-5.642 5.838-5.917 9.663-5.931v4.09c0 .23.132.441.343.544m-9.918-1.112c.054-1.739.284-3.811 1.234-5.564 1.509-2.792 4.433-4.173 8.944-4.217a.6.6 0 0 0 .593-.598V1.874l7.92 6.534-7.915 6.553v-3.414c0-.157-.064-.313-.176-.426s-.264-.176-.426-.176c-4.197.005-7.092.255-10.173 4.726"/><path d="M22.606 23.402V12.333a.601.601 0 1 0-1.204 0V22.8H2.482v-2.038a.601.601 0 1 0-1.204 0v2.635c0 .333.269.602.602.602h20.125a.6.6 0 0 0 .602-.598"/></svg>