<svg width="24" height="24" viewBox="0 0 0.72 0.72" fill="none" xmlns="http://www.w3.org/2000/svg"><path fill-rule="evenodd" clip-rule="evenodd" d="M.36.135C.158.135.045.292.045.36S.157.585.36.585.675.427.675.36.563.135.36.135M.167.453C.128.419.105.377.105.36S.128.301.167.267C.217.222.283.195.36.195s.143.027.193.072C.591.301.615.343.615.36S.592.419.553.453C.503.498.437.525.36.525S.217.498.167.453M.36.48a.12.12 0 1 1 0-.24.12.12 0 0 1 0 .24M.42.36a.06.06 0 1 1-.12 0 .06.06 0 0 1 .12 0" fill="#000"/></svg>