<svg width="24" height="24" viewBox="0 0 7.68 7.68" xmlns="http://www.w3.org/2000/svg"><path d="M6.927 4.884a.24.24 0 1 1-.416.24l-.551-.955a3.7 3.7 0 0 1-1.059.488l.174.989a.24.24 0 0 1-.195.278l-.042.004a.24.24 0 0 1-.236-.198l-.172-.973a4 4 0 0 1-1.185 0l-.172.973a.24.24 0 0 1-.236.198l-.042-.004a.24.24 0 0 1-.195-.278l.174-.989a3.7 3.7 0 0 1-1.057-.488l-.555.961a.24.24 0 1 1-.416-.24l.585-1.013a4.4 4.4 0 0 1-.56-.579.24.24 0 1 1 .373-.302 4 4 0 0 0 .637.628l.005.004a3.3 3.3 0 0 0 2.054.692 3.3 3.3 0 0 0 2.05-.692l.005-.004a4 4 0 0 0 .639-.629.24.24 0 0 1 .373.302 4.4 4.4 0 0 1-.562.58Z"/></svg>