<svg height="24" width="24" xmlns="http://www.w3.org/2000/svg" viewBox="0 0 0.96 0.96" xml:space="preserve"><path d="M0.66 0.12h0.21c0.018 0 0.03 -0.012 0.03 -0.03s-0.012 -0.03 -0.03 -0.03h-0.21c-0.018 0 -0.03 0.012 -0.03 0.03s0.012 0.03 0.03 0.03m0.21 0.12h-0.21c-0.018 0 -0.03 0.012 -0.03 0.03s0.012 0.03 0.03 0.03h0.21c0.018 0 0.03 -0.012 0.03 -0.03s-0.012 -0.03 -0.03 -0.03m0 0.18h-0.21c-0.018 0 -0.03 0.012 -0.03 0.03s0.012 0.03 0.03 0.03h0.21c0.018 0 0.03 -0.012 0.03 -0.03s-0.012 -0.03 -0.03 -0.03m0 0.18H0.09c-0.018 0 -0.03 0.012 -0.03 0.03s0.012 0.03 0.03 0.03h0.78c0.018 0 0.03 -0.012 0.03 -0.03s-0.012 -0.03 -0.03 -0.03m0 0.18H0.09c-0.018 0 -0.03 0.012 -0.03 0.03s0.012 0.03 0.03 0.03h0.78c0.018 0 0.03 -0.012 0.03 -0.03s-0.012 -0.03 -0.03 -0.03M0.258 0.246l0.102 0.078 0.15 -0.108V0.09c0 -0.018 -0.012 -0.03 -0.03 -0.03H0.09c-0.018 0 -0.03 0.012 -0.03 0.03v0.279l0.162 -0.12c0.012 -0.012 0.024 -0.012 0.036 -0.003M0.36 0.12c0.033 0 0.06 0.027 0.06 0.06s-0.027 0.06 -0.06 0.06 -0.06 -0.027 -0.06 -0.06 0.027 -0.06 0.06 -0.06"/><path d="M0.09 0.48h0.39c0.018 0 0.03 -0.012 0.03 -0.03V0.291l-0.132 0.096c-0.012 0.009 -0.024 0.006 -0.036 0L0.24 0.309l-0.18 0.135v0.006c0 0.018 0.012 0.03 0.03 0.03"/></svg>