<svg width="20" height="20" viewBox="0 0 0.9 0.9" xmlns="http://www.w3.org/2000/svg"><path d="M.45.05a.4.4 0 1 0 .4.4.4.4 0 0 0-.4-.4m0 .75A.35.35 0 1 1 .8.45.35.35 0 0 1 .45.8" class="clr-i-outline clr-i-outline-path-1"/><path d="M.457.223a.18.18 0 0 0-.143.064.03.03 0 0 0-.008.018.023.023 0 0 0 .024.023.03.03 0 0 0 .018-.007.14.14 0 0 1 .108-.05c.059 0 .096.038.096.085v.001c0 .055-.044.086-.114.091a.02.02 0 0 0-.019.023s0 .058 0 .069a.025.025 0 0 0 .025.023h.003A.025.025 0 0 0 .47.538V.486C.545.475.606.436.606.354V.353C.605.278.547.223.458.223" class="clr-i-outline clr-i-outline-path-2"/><path class="clr-i-outline clr-i-outline-path-3" d="M.476.655a.03.03 0 0 1-.031.031.03.03 0 0 1-.032-.031.031.031 0 0 1 .063 0"/><path d="M0 0h.9v.9H0z" fill="none"/></svg>