<svg width="24" height="24" viewBox="0 0 24 24" xmlns="http://www.w3.org/2000/svg" preserveAspectRatio="xMinYMin" class="jam jam-history"><g transform="translate(1, 2) scale(33.33)"><path d="M.393.27h.119c.016 0 .03.013.03.03S.529.33.512.33H.364A.03.03 0 0 1 .334.3V.12c0-.017.013-.03.03-.03s.03.013.03.03zm.18-.182A.3.3 0 0 1 .66.3C.66.466.527.6.364.6V.54A.24.24 0 0 0 .601.3.24.24 0 0 0 .532.13.24.24 0 0 0 .364.06a.24.24 0 0 0-.227.168L.178.2a.03.03 0 0 1 .041.008.03.03 0 0 1-.008.042L.113.317A.03.03 0 0 1 .072.309L.005.21A.03.03 0 0 1 .013.168a.03.03 0 0 1 .041.008l.025.038A.298.298 0 0 1 .574.088" fill="currentColor"/></g></svg>