<svg xmlns="http://www.w3.org/2000/svg" viewBox="0 0 24 24" xml:space="preserve" width="24" height="24"><path d="m7.028 7.453 7.473 5.365a.59.59 0 0 0 .621.044.6.6 0 0 0 .328-.533V9.903c2.734.02 5.131.293 7.429 4.343a.6.6 0 0 0 .675.283.596.596 0 0 0 .445-.577c0-1.57-.137-3.883-1.301-5.884-1.374-2.353-3.81-3.693-7.248-3.986v-2.46a.6.6 0 0 0-.323-.533.6.6 0 0 0-.621.044L7.028 6.479a.597.597 0 0 0 0 .973m7.224-4.666v1.859c0 .318.249.582.567.597 5.771.289 7.424 3.458 7.85 6.549-2.485-3.086-5.189-3.086-7.821-3.086-.157 0-.313.064-.426.176s-.176.264-.176.426v1.859L8.401 6.97z"/><path d="M.597 22.976h18.136a.6.6 0 0 0 .602-.602v-9.2a.601.601 0 1 0-1.204 0v8.603H1.194V7.574h3.052a.601.601 0 1 0 0-1.204H.597A.597.597 0 0 0 0 6.972v15.402a.59.59 0 0 0 .597.602"/></svg>