<svg width="20" height="20" viewBox="0 0 0.6 0.6" fill="none" xmlns="http://www.w3.org/2000/svg"><path d="M.075.275Q.074.308.079.319a.05.05 0 0 0 .027.027Q.117.351.15.35h.017q.02 0 .028.003l.004.003q.006.005.012.025L.214.39C.22.407.222.415.229.419c.007.005.015.005.033.005H.34Q.364.425.373.419C.382.413.382.406.388.39L.391.381Q.397.361.403.356L.407.353Q.414.349.435.35H.45C.473.35.485.35.494.346A.05.05 0 0 0 .521.319Q.526.307.525.275M.2.225.3.3m0 0L.4.225M.3.3V.05" stroke="#222" stroke-width=".04"/><path d="M.4.125h.025c.047 0 .071 0 .085.015s.015.038.015.085v.2c0 .047 0 .071-.015.085S.472.525.425.525h-.25C.128.525.104.525.09.51S.075.472.075.425v-.2c0-.047 0-.071.015-.085S.128.125.175.125H.2" stroke="#222" stroke-width=".04"/></svg>