<svg width="24" height="24" viewBox="0 0 24 24" fill="none" xmlns="http://www.w3.org/2000/svg"><path d="M4 8.25A2.25 2.25 0 0 1 6.25 6h3.18c.49 0 .96.2 1.28.55l1.08 1.2c.28.3.66.47 1.07.47h4.89A2.25 2.25 0 0 1 20 10.47v7.28A2.25 2.25 0 0 1 17.75 20H6.25A2.25 2.25 0 0 1 4 17.75z" fill="currentColor" opacity=".14"/><path d="M4 8.25A2.25 2.25 0 0 1 6.25 6h3.18c.49 0 .96.2 1.28.55l1.08 1.2c.28.3.66.47 1.07.47h4.89A2.25 2.25 0 0 1 20 10.47v7.28A2.25 2.25 0 0 1 17.75 20H6.25A2.25 2.25 0 0 1 4 17.75z" stroke="currentColor" stroke-width="1.7" stroke-linejoin="round"/><path d="M7.25 12.2h9.5m-9.5 3.3h6.2" stroke="currentColor" stroke-width="1.7" stroke-linecap="round" opacity=".82"/></svg>