<svg width="24" height="24" viewBox="0 0 0.9 0.9" xmlns="http://www.w3.org/2000/svg"><path d="M.255.57h.39a.015.015 0 1 1 0 .03h-.39a.015.015 0 1 1 0-.03m0-.12h.39a.015.015 0 1 1 0 .03h-.39a.015.015 0 1 1 0-.03m0-.12h.39a.015.015 0 1 1 0 .03h-.39a.015.015 0 1 1 0-.03m.3-.27A.015.015 0 0 0 .54.075v.12C.54.22.56.24.585.24h.12c.02 0 .02-.03 0-.03h-.12A.015.015 0 0 1 .57.195v-.12A.015.015 0 0 0 .555.06M.135 0A.045.045 0 0 0 .09.045v.81C.09.88.11.9.135.9h.63C.79.9.81.88.81.855v-.63L.806.214l-.21-.21L.585 0zm0 .03h.444L.78.231v.624Q.78.869.765.87h-.63A.015.015 0 0 1 .12.855v-.81Q.12.031.135.03"/></svg>