<svg width="16" height="16" viewBox="0 0 16 16" fill="none" xmlns="http://www.w3.org/2000/svg"><path d="M8.775 11.83a4.9 4.9 0 0 1-1.457 1.024q-.765.332-1.846.332-1.947 0-3.217-1.414Q1 10.359 1 8.065v-.13q0-2.294 1.284-3.707Q3.568 2.8 5.573 2.8q1.86 0 3.13 1.154l-.981 1.688q-1.053-.895-2.106-.895-1.082 0-1.774.851-.678.852-.678 2.308v.144q0 1.486.678 2.337t1.788.851q1.082 0 2.15-.923zm6.855.288a3.8 3.8 0 0 1-1.11.808q-.578.274-1.443.274-1.543 0-2.538-1.096-.996-1.11-.996-2.827v-.16q0-1.715 1.01-2.826t2.553-1.111 2.481.966l-.923 1.53q-.707-.68-1.5-.679-.693 0-1.14.577t-.447 1.515v.173q0 .966.447 1.543.462.578 1.212.578t1.5-.678z" fill="#007AFF"/></svg>