<svg width="24" height="24" viewBox="0 0 0.48 0.48" xmlns="http://www.w3.org/2000/svg"><path fill-rule="evenodd" clip-rule="evenodd" d="M.097.112.166.18.232.114.211.094l-.03.03V.076A.016.016 0 0 1 .197.06H.24V.03H.194A.044.044 0 0 0 .15.074v.048L.118.091zm.2.054Q.306.18.322.18.34.18.35.164T.361.125.352.089.325.076q-.018 0-.028.018V.03H.27v.148h.026zm0-.032V.122q0-.011.005-.018A.01.01 0 0 1 .316.097a.01.01 0 0 1 .013.007q.005.007.005.019 0 .014-.005.023a.01.01 0 0 1-.014.008.01.01 0 0 1-.012-.006.02.02 0 0 1-.005-.016M.27.383Q.258.39.236.39.211.39.196.374.18.358.18.332q0-.029.017-.046T.242.27q.019 0 .029.005v.03A.04.04 0 0 0 .247.297q-.014 0-.023.008T.216.329t.008.024.023.008.025-.008zM.12.21.09.24v.18l.03.03h.21L.36.42V.24L.33.21zm0 .03h.21v.18H.12z"/></svg>