<svg width="24" height="24" viewBox="0 0 0.48 0.48" xmlns="http://www.w3.org/2000/svg"><path fill-rule="evenodd" clip-rule="evenodd" d="M.348.08Q.355.066.367.066q.011 0 .017.011T.39.106q0 .02-.007.032T.364.15Q.353.15.348.139v.009H.33V.03h.018zm0 .033.003.013q.003.005.008.005.006 0 .009-.006Q.371.118.371.107T.368.092Q.365.086.359.086T.35.092L.346.106zM.124.231.06.167l.02-.02.03.03V.132A.04.04 0 0 1 .152.09h.07v.027h-.07a.015.015 0 0 0-.014.015v.045L.166.149l.02.02zM.281.148H.3V.097Q.3.06.272.06L.259.062.247.067v.02Q.258.078.269.078q.012 0 .012.014L.263.095Q.24.099.24.124q0 .012.005.019A.02.02 0 0 0 .261.15q.013 0 .02-.014zm0-.041v.006a.02.02 0 0 1-.004.013.01.01 0 0 1-.009.005L.261.128.259.121q0-.01.01-.012zM.21.388H.191V.376Q.184.39.171.39A.02.02 0 0 1 .156.383Q.15.376.15.364q0-.025.023-.029L.191.332q0-.014-.012-.014T.157.327v-.02Q.161.304.169.302T.182.3Q.21.3.21.337zM.191.353V.347L.179.349q-.01.002-.01.012 0 .004.002.007l.007.003A.01.01 0 0 0 .187.366Q.191.361.191.353M.278.39Q.292.39.3.385V.364A.03.03 0 0 1 .283.37.02.02 0 0 1 .268.364Q.263.357.263.346q0-.012.006-.018A.02.02 0 0 1 .284.321Q.293.321.3.327V.305Q.294.3.281.3.262.3.251.313T.24.347q0 .019.01.031T.277.39M.06.27.09.24h.27l.03.03v.15L.36.45H.09L.06.42zm.03 0v.15h.27V.27zM.18.21.21.18h.21l.03.03v.15L.42.39V.21z"/></svg>