<svg width="24" height="24" viewBox="0 0 5.76 5.76" xmlns="http://www.w3.org/2000/svg" fill="none"><g stroke="#000" stroke-linecap="round" stroke-linejoin="round" clip-path="url(#a)"><path stroke-width=".36" d="M.82 4.77h3.46a.16.16 0 0 0 .16-.16v-2.5a.16.16 0 0 0-.047-.113.16.16 0 0 0-.113-.047H.82a.16.16 0 0 0-.16.16v2.5a.16.16 0 0 0 .16.16"/><path stroke-width=".36" d="M1.32 1.887V1.15a.16.16 0 0 1 .16-.16h3.46a.16.16 0 0 1 .16.16v2.5a.16.16 0 0 1-.047.113.16.16 0 0 1-.113.047h-.481"/><path stroke-width=".347" d="M3.865 4.658a1.4 1.4 0 0 0 .062-.407 1.37 1.37 0 0 0-2.738 0q0 .071.007.14a1.4 1.4 0 0 0 .055.267"/><path stroke-width=".347" d="M2.557 4.769a.5.5 0 0 0 .201-.041.5.5 0 0 0 .165-.111.5.5 0 0 0 .063-.077.5.5 0 0 0 .088-.29.518.518 0 0 0-1.036 0 .5.5 0 0 0 .088.29.5.5 0 0 0 .14.14.5.5 0 0 0 .185.078.5.5 0 0 0 .104.011m0-1.036h1.221m-1.67.777-.611-1.058"/></g><defs><clipPath id="a"><path fill="#fff" d="M0 0h5.76v5.76H0z"/></clipPath></defs></svg>