<svg width="24" height="24" viewBox="0 0 24 24" xmlns="http://www.w3.org/2000/svg"><circle cx="12" cy="12" r="12" fill="#6d9a00"/><circle cx="12" cy="12" r="12" fill="#6d9a00"/><path d="M8.75 11.98a.75.75 0 1 1 .73-.73.73.73 0 0 1-.73.73m2.52 0a.75.75 0 1 1 .73-.73.73.73 0 0 1-.73.73m2.52 0a.75.75 0 1 1 .73-.73.73.73 0 0 1-.73.73" fill="#fff"/><path d="M5.73 12.67v-1.3l.65-.13a.75.75 0 0 0 .33-.33l.2-.58.05-.9a7.5 7.5 0 0 1 .1-1.48 2.5 2.5 0 0 1 .33-.68 1.25 1.25 0 0 1 .6-.43 2.5 2.5 0 0 1 .98-.1h.28v1.08a2.5 2.5 0 0 0-.48.08.5.5 0 0 0-.25.2l-.08.63-.05 1.3a2.5 2.5 0 0 1-.13.88l-.28.55-.5.45.5.43.3.6.13.95.03 1.15.08.7a.5.5 0 0 0 .25.23 2.5 2.5 0 0 0 .73.08v1.08h-.02a2.5 2.5 0 0 1-.98-.1 2.5 2.5 0 0 1-.63-.38 2.5 2.5 0 0 1-.35-.68 7.5 7.5 0 0 1-.1-1.28 7.5 7.5 0 0 0-.08-1.3 1.25 1.25 0 0 0-.35-.63 2.5 2.5 0 0 0-.8-.18m11.8.18a1.25 1.25 0 0 0-.35.63 7.5 7.5 0 0 0-.08 1.3 7.5 7.5 0 0 1-.1 1.28 2.5 2.5 0 0 1-.35.68 2.5 2.5 0 0 1-.63.4 2.5 2.5 0 0 1-.98.15h-.28v-1.13a2.5 2.5 0 0 0 .73-.08.5.5 0 0 0 .25-.23l.08-.7.03-1.15.13-.95.3-.6.5-.43-.5-.43-.3-.55a2.5 2.5 0 0 1-.13-.95l-.05-1.15-.08-.65a.5.5 0 0 0-.25-.2 2.5 2.5 0 0 0-.73-.08V6.75h.28a2.5 2.5 0 0 1 .98.1 1.25 1.25 0 0 1 .6.43 2.5 2.5 0 0 1 .33.68 7.5 7.5 0 0 1 .1 1.48l.05.9.2.58a.75.75 0 0 0 .33.33l.65.1v1.3a2.5 2.5 0 0 0-.8.2" fill="#fff"/></svg>