<svg width="24" height="24" viewBox="0 0 24 24" xmlns="http://www.w3.org/2000/svg"><g transform="scale(50)"><path fill-rule="evenodd" clip-rule="evenodd" d="M.443.105.42.099.357.162.321.126.383.061.378.037A.1.1 0 0 0 .338.03a.1.1 0 0 0-.044.008.1.1 0 0 0-.036.025.1.1 0 0 0-.026.038.12.12 0 0 0 0 .089L.047.377a.05.05 0 0 0-.009.029.04.04 0 0 0 .014.029q.006.006.013.01l.016.004a.04.04 0 0 0 .026-.01C.153.395.242.305.293.253a.1.1 0 0 0 .043.009.1.1 0 0 0 .08-.034.12.12 0 0 0 .033-.082.1.1 0 0 0-.006-.041M.088.418.084.42H.08L.076.418.073.415Q.065.407.069.398C.11.354.195.269.248.217q.004.006.01.011.005.006.011.01L.09.418zM.422.146a.1.1 0 0 1-.025.061.086.086 0 0 1-.12 0A.09.09 0 0 1 .258.113.08.08 0 0 1 .304.065.1.1 0 0 1 .336.059h.008L.289.115v.021l.057.057h.02L.421.139zM.097.201h.046l.021.022.02-.02-.02-.02V.18L.166.131.159.118.073.062.055.064.03.089.028.107l.055.088.013.006zM.069.092l.069.045-.001.034H.105L.06.1zm.213.209.02-.02.093.096a.044.044 0 0 1 0 .061.04.04 0 0 1-.046.009L.336.438.242.342l.02-.02.094.096.005.003a.01.01 0 0 0 .011 0L.377.418.38.413.381.407.38.401.377.396z" fill="currentColor"/></g></svg>